<?xml version="1.0" encoding="UTF-8" standalone="no"?>
<!-- Created with Inkscape (http://www.inkscape.org/) -->

<svg
   xmlns:dc="http://purl.org/dc/elements/1.1/"
   xmlns:cc="http://creativecommons.org/ns#"
   xmlns:rdf="http://www.w3.org/1999/02/22-rdf-syntax-ns#"
   xmlns:svg="http://www.w3.org/2000/svg"
   xmlns="http://www.w3.org/2000/svg"
   xmlns:sodipodi="http://sodipodi.sourceforge.net/DTD/sodipodi-0.dtd"
   xmlns:inkscape="http://www.inkscape.org/namespaces/inkscape"
   version="1.1"
   id="svg2"
   xml:space="preserve"
   width="332.43201"
   height="179.86133"
   viewBox="0 0 332.432 179.86133"
   sodipodi:docname="loterias-logo.svg"
   inkscape:version="0.92.2 (5c3e80d, 2017-08-06)"><metadata
     id="metadata8"><rdf:RDF><cc:Work
         rdf:about=""><dc:format>image/svg+xml</dc:format><dc:type
           rdf:resource="http://purl.org/dc/dcmitype/StillImage" /><dc:title></dc:title></cc:Work></rdf:RDF></metadata><defs
     id="defs6"><clipPath
       clipPathUnits="userSpaceOnUse"
       id="clipPath20"><path
         d="M 0,708.661 H 1275.59 V 0 H 0 Z"
         id="path18"
         inkscape:connector-curvature="0" /></clipPath><clipPath
       clipPathUnits="userSpaceOnUse"
       id="clipPath58"><path
         d="m 141.733,0 h 1105.51 V 708.661 H 141.733 Z"
         id="path56"
         inkscape:connector-curvature="0" /></clipPath><clipPath
       clipPathUnits="userSpaceOnUse"
       id="clipPath132"><path
         d="m 141.733,0 h 1105.51 V 708.661 H 141.733 Z"
         id="path130"
         inkscape:connector-curvature="0" /></clipPath><clipPath
       clipPathUnits="userSpaceOnUse"
       id="clipPath750"><path
         d="m 141.733,0 h 1105.51 V 708.661 H 141.733 Z"
         id="path748"
         inkscape:connector-curvature="0" /></clipPath><clipPath
       clipPathUnits="userSpaceOnUse"
       id="clipPath1006"><path
         d="m 141.733,0 h 1105.51 V 708.661 H 141.733 Z"
         id="path1004"
         inkscape:connector-curvature="0" /></clipPath><clipPath
       clipPathUnits="userSpaceOnUse"
       id="clipPath1042"><path
         d="M 815.478,158.644 H 1044.15 V -71.1718 H 815.478 Z"
         id="path1040"
         inkscape:connector-curvature="0" /></clipPath><clipPath
       clipPathUnits="userSpaceOnUse"
       id="clipPath1046"><path
         d="m 815.478,-71.172 h 228.674 V 158.644 H 815.478 Z"
         id="path1044"
         inkscape:connector-curvature="0" /></clipPath><clipPath
       clipPathUnits="userSpaceOnUse"
       id="clipPath1092"><path
         d="m 1017.525,444.359 h 47.65 v 79.37 h -47.65 z"
         id="path1090"
         inkscape:connector-curvature="0" /></clipPath><clipPath
       clipPathUnits="userSpaceOnUse"
       id="clipPath1232"><path
         d="m 141.733,0 h 1105.51 V 708.661 H 141.733 Z"
         id="path1230"
         inkscape:connector-curvature="0" /></clipPath><clipPath
       clipPathUnits="userSpaceOnUse"
       id="clipPath1250"><path
         d="m 141.733,0 h 1105.51 V 708.661 H 141.733 Z"
         id="path1248"
         inkscape:connector-curvature="0" /></clipPath><clipPath
       clipPathUnits="userSpaceOnUse"
       id="clipPath1280"><path
         d="m 141.733,0 h 1105.51 V 708.661 H 141.733 Z"
         id="path1278"
         inkscape:connector-curvature="0" /></clipPath><clipPath
       clipPathUnits="userSpaceOnUse"
       id="clipPath1336"><path
         d="m 141.733,0 h 1105.51 V 708.661 H 141.733 Z"
         id="path1334"
         inkscape:connector-curvature="0" /></clipPath><clipPath
       clipPathUnits="userSpaceOnUse"
       id="clipPath1362"><path
         d="m 141.733,0 h 1105.51 V 708.661 H 141.733 Z"
         id="path1360"
         inkscape:connector-curvature="0" /></clipPath><clipPath
       clipPathUnits="userSpaceOnUse"
       id="clipPath1382"><path
         d="m 141.733,0 h 1105.51 V 708.661 H 141.733 Z"
         id="path1380"
         inkscape:connector-curvature="0" /></clipPath><clipPath
       clipPathUnits="userSpaceOnUse"
       id="clipPath1406"><path
         d="m 141.733,0 h 1105.51 V 708.661 H 141.733 Z"
         id="path1404"
         inkscape:connector-curvature="0" /></clipPath><clipPath
       clipPathUnits="userSpaceOnUse"
       id="clipPath1426"><path
         d="m 141.733,0 h 1105.51 V 708.661 H 141.733 Z"
         id="path1424"
         inkscape:connector-curvature="0" /></clipPath><clipPath
       clipPathUnits="userSpaceOnUse"
       id="clipPath1452"><path
         d="m 141.733,0 h 1105.51 V 708.661 H 141.733 Z"
         id="path1450"
         inkscape:connector-curvature="0" /></clipPath><clipPath
       clipPathUnits="userSpaceOnUse"
       id="clipPath1484"><path
         d="m 141.733,0 h 1105.51 V 708.661 H 141.733 Z"
         id="path1482"
         inkscape:connector-curvature="0" /></clipPath><clipPath
       clipPathUnits="userSpaceOnUse"
       id="clipPath1500"><path
         d="m 141.733,0 h 1105.51 V 708.661 H 141.733 Z"
         id="path1498"
         inkscape:connector-curvature="0" /></clipPath><clipPath
       clipPathUnits="userSpaceOnUse"
       id="clipPath1522"><path
         d="m 141.733,0 h 1105.51 V 708.661 H 141.733 Z"
         id="path1520"
         inkscape:connector-curvature="0" /></clipPath><clipPath
       clipPathUnits="userSpaceOnUse"
       id="clipPath1550"><path
         d="m 141.733,0 h 1105.51 V 708.661 H 141.733 Z"
         id="path1548"
         inkscape:connector-curvature="0" /></clipPath><clipPath
       clipPathUnits="userSpaceOnUse"
       id="clipPath1592"><path
         d="m 141.733,0 h 1105.51 V 708.661 H 141.733 Z"
         id="path1590"
         inkscape:connector-curvature="0" /></clipPath><clipPath
       clipPathUnits="userSpaceOnUse"
       id="clipPath1624"><path
         d="m 141.733,0 h 1105.51 V 708.661 H 141.733 Z"
         id="path1622"
         inkscape:connector-curvature="0" /></clipPath><clipPath
       clipPathUnits="userSpaceOnUse"
       id="clipPath1640"><path
         d="m 141.733,0 h 1105.51 V 708.661 H 141.733 Z"
         id="path1638"
         inkscape:connector-curvature="0" /></clipPath><clipPath
       clipPathUnits="userSpaceOnUse"
       id="clipPath1668"><path
         d="m 141.733,0 h 1105.51 V 708.661 H 141.733 Z"
         id="path1666"
         inkscape:connector-curvature="0" /></clipPath><clipPath
       clipPathUnits="userSpaceOnUse"
       id="clipPath1696"><path
         d="m 141.733,0 h 1105.51 V 708.661 H 141.733 Z"
         id="path1694"
         inkscape:connector-curvature="0" /></clipPath><clipPath
       clipPathUnits="userSpaceOnUse"
       id="clipPath1722"><path
         d="m 141.733,0 h 1105.51 V 708.661 H 141.733 Z"
         id="path1720"
         inkscape:connector-curvature="0" /></clipPath><clipPath
       clipPathUnits="userSpaceOnUse"
       id="clipPath1752"><path
         d="m 141.733,0 h 1105.51 V 708.661 H 141.733 Z"
         id="path1750"
         inkscape:connector-curvature="0" /></clipPath><clipPath
       clipPathUnits="userSpaceOnUse"
       id="clipPath1808"><path
         d="m 141.733,0 h 1105.51 V 708.661 H 141.733 Z"
         id="path1806"
         inkscape:connector-curvature="0" /></clipPath><clipPath
       clipPathUnits="userSpaceOnUse"
       id="clipPath1830"><path
         d="m 141.733,0 h 1105.51 V 708.661 H 141.733 Z"
         id="path1828"
         inkscape:connector-curvature="0" /></clipPath><clipPath
       clipPathUnits="userSpaceOnUse"
       id="clipPath1874"><path
         d="m 141.733,0 h 1105.51 V 708.661 H 141.733 Z"
         id="path1872"
         inkscape:connector-curvature="0" /></clipPath></defs><sodipodi:namedview
     pagecolor="#ffffff"
     bordercolor="#666666"
     borderopacity="1"
     objecttolerance="10"
     gridtolerance="10"
     guidetolerance="10"
     inkscape:pageopacity="0"
     inkscape:pageshadow="2"
     inkscape:window-width="1600"
     inkscape:window-height="837"
     id="namedview4"
     showgrid="false"
     fit-margin-top="0"
     fit-margin-left="0"
     fit-margin-right="0"
     fit-margin-bottom="0"
     inkscape:zoom="3.4242976"
     inkscape:cx="151.84953"
     inkscape:cy="109.84418"
     inkscape:window-x="-8"
     inkscape:window-y="-8"
     inkscape:window-maximized="1"
     inkscape:current-layer="g10" /><g
     id="g10"
     inkscape:groupmode="layer"
     inkscape:label="loterias-logo"
     transform="matrix(1.3333333,0,0,-1.3333333,-605.22624,503.0244)"><path
       d="m 580.27969,322.10331 h 122.964 v -24.568 h -122.964 z"
       style="fill:#0058a2;fill-opacity:1;fill-rule:nonzero;stroke:none"
       id="path1242"
       inkscape:connector-curvature="0" /><g
       id="g1244"
       transform="translate(-497.62031,164.70531)"><g
         id="g1246"
         clip-path="url(#clipPath1250)"><g
           id="g1252"
           transform="translate(1119.3328,138.2049)"><path
             d="M 0,0 2.19,13.77 H 9.01 L 8.482,10.433 H 5.491 L 5.178,8.442 H 7.764 L 7.264,5.197 H 4.66 L 3.833,0 Z m 7.822,0 h 6.82 l 0.566,3.559 h -2.982 l 0.313,1.893 h 2.689 l 0.498,3.227 h -2.688 l 0.292,1.754 h 2.973 l 0.528,3.337 h -6.82 z m 8.167,0 2.191,13.77 h 2.913 c 1.836,0 3.191,-0.426 4.06,-1.279 0.873,-0.857 1.308,-2.18 1.308,-3.974 C 26.461,7.136 26.244,5.8 25.814,4.514 25.386,3.226 24.828,2.238 24.148,1.546 23.595,0.99 22.961,0.589 22.243,0.355 21.529,0.119 20.408,0 18.888,0 Z m 4.416,3.397 c 0.026,-0.005 0.051,-0.009 0.08,-0.012 0.029,-0.004 0.072,-0.007 0.129,-0.007 0.225,0 0.441,0.055 0.644,0.161 0.206,0.106 0.377,0.254 0.515,0.445 0.225,0.3 0.444,0.914 0.651,1.841 0.208,0.927 0.312,1.852 0.312,2.769 0,0.596 -0.097,1.033 -0.287,1.314 -0.193,0.281 -0.502,0.435 -0.93,0.467 z M 26.48,0 28.67,13.77 h 6.819 L 34.961,10.433 H 31.989 L 31.696,8.679 h 2.688 L 33.885,5.452 H 31.198 L 30.885,3.559 h 2.981 L 33.299,0 Z m 13.236,7.631 h 0.206 c 0.587,0 1.037,0.185 1.349,0.551 0.316,0.368 0.474,0.899 0.474,1.592 0,0.395 -0.1,0.685 -0.304,0.874 -0.2,0.191 -0.51,0.285 -0.932,0.285 -0.027,0 -0.068,-0.004 -0.126,-0.011 -0.061,-0.006 -0.109,-0.009 -0.149,-0.009 z M 34.648,0 H 38.5 L 39.365,5.565 40.234,0 h 4.078 l -1.701,6.028 c 0.921,0.232 1.623,0.708 2.109,1.433 0.486,0.725 0.731,1.648 0.731,2.772 0,1.292 -0.387,2.202 -1.157,2.737 -0.769,0.534 -2.173,0.8 -4.21,0.8 h -3.246 z m 10.026,0 5.178,13.77 h 4.537 L 55.361,0 h -3.886 l 0.019,2.029 H 49.221 L 48.619,0 Z m 5.359,4.811 h 1.536 l 0.046,5.103 z M 55.785,0 l 2.19,13.77 h 3.858 L 60.191,3.418 h 2.82 L 62.473,0 Z"
             style="fill:#ffffff;fill-opacity:1;fill-rule:nonzero;stroke:none"
             id="path1254"
             inkscape:connector-curvature="0" /></g><g
           id="g1256"
           transform="translate(1105.0555,151.5125)"><path
             d="M 0,0 C 0,1.531 -1.286,2.816 -2.816,2.816 -4.347,2.816 -5.633,1.531 -5.633,0 v -0.307 h -0.305 c -1.532,0 -2.817,-1.284 -2.817,-2.875 0,-1.531 1.285,-2.817 2.817,-2.817 H 0 Z"
             style="fill:#ffffff;fill-opacity:1;fill-rule:nonzero;stroke:none"
             id="path1258"
             inkscape:connector-curvature="0" /></g><g
           id="g1260"
           transform="translate(1105.0555,138.7177)"><path
             d="m 0,0 c 0,-1.529 -1.286,-2.815 -2.816,-2.815 -1.531,0 -2.817,1.286 -2.817,2.815 v 0.307 h -0.305 c -1.532,0 -2.817,1.285 -2.817,2.816 0,1.531 1.285,2.815 2.817,2.815 H 0 Z"
             style="fill:#a2b4dc;fill-opacity:1;fill-rule:nonzero;stroke:none"
             id="path1262"
             inkscape:connector-curvature="0" /></g><g
           id="g1264"
           transform="translate(1105.9739,151.5125)"><path
             d="M 0,0 C 0,1.531 1.224,2.816 2.816,2.816 4.346,2.816 5.632,1.531 5.632,0 v -0.307 h 0.306 c 1.531,0 2.815,-1.284 2.815,-2.875 0,-1.531 -1.284,-2.817 -2.815,-2.817 H 0 Z"
             style="fill:#a2b4dc;fill-opacity:1;fill-rule:nonzero;stroke:none"
             id="path1266"
             inkscape:connector-curvature="0" /></g><g
           id="g1268"
           transform="translate(1105.9739,138.7177)"><path
             d="m 0,0 c 0,-1.529 1.224,-2.815 2.816,-2.815 1.53,0 2.816,1.286 2.816,2.815 v 0.307 h 0.306 c 1.531,0 2.815,1.285 2.815,2.816 0,1.531 -1.284,2.815 -2.815,2.815 H 0 Z"
             style="fill:#ffffff;fill-opacity:1;fill-rule:nonzero;stroke:none"
             id="path1270"
             inkscape:connector-curvature="0" /></g></g></g><path
       d="m 453.92069,294.45731 h 122.319 v -24.462 h -122.319 z"
       style="fill:#0090d2;fill-opacity:1;fill-rule:nonzero;stroke:none"
       id="path1272"
       inkscape:connector-curvature="0" /><g
       id="g1274"
       transform="translate(-497.62031,164.70531)"><g
         id="g1276"
         clip-path="url(#clipPath1280)"><g
           id="g1282"
           transform="translate(968.3524,123.8914)"><path
             d="M 0,0 C 0,1.518 -1.226,2.803 -2.804,2.803 -4.324,2.803 -5.609,1.518 -5.609,0 v -0.293 l -0.293,-0.059 c -1.577,0 -2.804,-1.226 -2.804,-2.805 0,-1.519 1.227,-2.804 2.804,-2.804 H 0 Z"
             style="fill:#ffffff;fill-opacity:1;fill-rule:nonzero;stroke:none"
             id="path1284"
             inkscape:connector-curvature="0" /></g><g
           id="g1286"
           transform="translate(968.3524,111.1526)"><path
             d="m 0,0 c 0,-1.579 -1.226,-2.805 -2.804,-2.805 -1.52,0 -2.805,1.226 -2.805,2.805 v 0.293 h -0.293 c -1.577,0 -2.804,1.285 -2.804,2.804 0,1.577 1.227,2.805 2.804,2.805 H 0 Z"
             style="fill:#9fd1f0;fill-opacity:1;fill-rule:nonzero;stroke:none"
             id="path1288"
             inkscape:connector-curvature="0" /></g><g
           id="g1290"
           transform="translate(969.2296,123.8914)"><path
             d="M 0,0 C 0,1.518 1.285,2.803 2.804,2.803 4.382,2.803 5.609,1.518 5.609,0 v -0.293 l 0.352,-0.059 c 1.517,0 2.804,-1.226 2.804,-2.805 0,-1.519 -1.287,-2.804 -2.804,-2.804 H 0 Z"
             style="fill:#9fd1f0;fill-opacity:1;fill-rule:nonzero;stroke:none"
             id="path1292"
             inkscape:connector-curvature="0" /></g><g
           id="g1294"
           transform="translate(969.2296,111.1526)"><path
             d="m 0,0 c 0,-1.579 1.285,-2.805 2.804,-2.805 1.578,0 2.805,1.226 2.805,2.805 v 0.293 h 0.352 c 1.517,0 2.804,1.285 2.804,2.804 0,1.577 -1.287,2.805 -2.804,2.805 H 0 Z"
             style="fill:#ffffff;fill-opacity:1;fill-rule:nonzero;stroke:none"
             id="path1296"
             inkscape:connector-curvature="0" /></g><g
           id="g1298"
           transform="translate(1037.2354,124.3521)"><path
             d="M 0,0 C 0.497,0.78 0.992,1.56 1.486,2.342 H 3.427 L 4.169,0 H 2.912 L 2.284,1.198 1.257,0 Z"
             style="fill:#ffffff;fill-opacity:1;fill-rule:nonzero;stroke:none"
             id="path1300"
             inkscape:connector-curvature="0" /></g><g
           id="g1302"
           transform="translate(1062.6691,116.1288)"><path
             d="M 0,0 0.057,4.055 C -0.356,2.7 -0.775,1.349 -1.199,0 Z m 2.284,7.139 0.8,-11.023 h -3.142 v 1.599 h -1.827 l -0.457,-1.599 h -3.14 c 1.354,3.679 2.737,7.35 4.112,11.023 z"
             style="fill:#ffffff;fill-opacity:1;fill-rule:nonzero;stroke:none"
             id="path1304"
             inkscape:connector-curvature="0" /></g><g
           id="g1306"
           transform="translate(1055.5107,120.5829)"><path
             d="m 0,0 -0.229,-1.37 h 2.17 l -0.4,-2.57 h -2.17 l -0.227,-1.544 h 2.34 L 1.085,-8.339 h -5.483 c 0.463,3.688 1.132,7.354 1.713,11.024 H 2.798 L 2.398,0 Z"
             style="fill:#ffffff;fill-opacity:1;fill-rule:nonzero;stroke:none"
             id="path1308"
             inkscape:connector-curvature="0" /></g><g
           id="g1310"
           transform="translate(1049.6857,112.2444)"><path
             d="M 0,0 H -2.855 L -3.884,5.71 -4.912,0 h -2.627 l 1.771,11.023 h 2.855 l 1.028,-5.882 1.029,5.882 H 1.713 C 1.028,7.371 0.561,3.672 0,0"
             style="fill:#ffffff;fill-opacity:1;fill-rule:nonzero;stroke:none"
             id="path1312"
             inkscape:connector-curvature="0" /></g><g
           id="g1314"
           transform="translate(1038.6062,116.1288)"><path
             d="M 0,0 0.058,4.055 C -0.356,2.7 -0.775,1.349 -1.2,0 Z M 2.284,7.139 3.085,-3.884 h -3.143 v 1.599 h -1.827 l -0.457,-1.599 h -3.141 c 1.295,3.702 2.722,7.355 4.112,11.023 z"
             style="fill:#ffffff;fill-opacity:1;fill-rule:nonzero;stroke:none"
             id="path1316"
             inkscape:connector-curvature="0" /></g></g></g><g
       id="g1318"
       transform="translate(534.93259,285.17301)"><path
         d="M 0,0 -1.314,-8.223 H -4.455 L -3.141,0 H -4.97 l 0.457,2.8 h 6.74 L 1.827,0 Z"
         style="fill:#ffffff;fill-opacity:1;fill-rule:nonzero;stroke:none"
         id="path1320"
         inkscape:connector-curvature="0" /></g><g
       id="g1322"
       transform="translate(520.19649,276.94971)"><path
         d="M 0,0 1.771,11.023 H 4.626 L 5.597,5.141 6.626,11.023 H 9.253 L 7.482,0 H 4.684 L 3.599,5.71 2.628,0 Z"
         style="fill:#ffffff;fill-opacity:1;fill-rule:nonzero;stroke:none"
         id="path1324"
         inkscape:connector-curvature="0" /></g><g
       id="g1326"
       transform="translate(511.00269,285.17301)"><path
         d="M 0,0 -1.314,-8.223 H -4.398 L -3.141,0 H -4.97 l 0.458,2.8 H 2.284 L 1.828,0 Z"
         style="fill:#ffffff;fill-opacity:1;fill-rule:nonzero;stroke:none"
         id="path1328"
         inkscape:connector-curvature="0" /></g><g
       id="g1330"
       transform="translate(-497.62031,164.70531)"><g
         id="g1332"
         clip-path="url(#clipPath1336)"><g
           id="g1338"
           transform="translate(1008.7366,112.2444)"><path
             d="M 0,0 H 3.198 L 3.656,1.599 H 5.483 V 0 H 8.567 L 7.825,11.023 H 4.169 C 2.791,7.345 1.421,3.663 0,0 m 4.341,3.884 c 0.424,1.35 0.842,2.7 1.256,4.055 L 5.541,3.884 Z"
             style="fill:#ffffff;fill-opacity:1;fill-rule:nonzero;stroke:none"
             id="path1340"
             inkscape:connector-curvature="0" /></g><g
           id="g1342"
           transform="translate(996.3446,115.614)"><path
             d="m 0,0 c 0.342,-0.285 0.685,-0.457 1.027,-0.628 0.4,-0.172 0.742,-0.23 1.143,-0.23 0.285,0 0.513,0.058 0.685,0.23 0.228,0.171 0.285,0.4 0.285,0.685 0,0.286 -0.057,0.515 -0.228,0.742 C 2.798,1.085 2.455,1.428 2.056,1.829 1.542,2.34 1.142,2.798 0.97,3.142 0.742,3.542 0.685,3.999 0.685,4.455 c 0,1.028 0.342,1.885 0.971,2.512 0.685,0.629 1.599,0.914 2.741,0.914 0.457,0 0.914,-0.056 1.313,-0.17 C 6.11,7.654 6.567,7.482 6.967,7.254 L 6.567,4.569 C 6.225,4.799 5.883,4.969 5.596,5.084 5.254,5.197 4.968,5.254 4.683,5.254 4.397,5.254 4.225,5.197 4.054,5.084 3.94,4.969 3.826,4.741 3.826,4.511 3.826,4.226 4.111,3.768 4.683,3.197 L 4.854,3.027 C 5.425,2.455 5.826,2 5.997,1.598 6.168,1.2 6.282,0.742 6.282,0.172 6.282,-0.97 5.939,-1.941 5.196,-2.627 4.454,-3.255 3.483,-3.598 2.17,-3.598 c -0.514,0 -1.028,0.057 -1.485,0.171 -0.438,0.146 -0.845,0.309 -1.257,0.515 C -0.378,-1.943 -0.186,-0.97 0,0"
             style="fill:#ffffff;fill-opacity:1;fill-rule:nonzero;stroke:none"
             id="path1344"
             inkscape:connector-curvature="0" /></g><g
           id="g1346"
           transform="translate(993.8314,123.2675)"><path
             d="M 0,0 -1.086,-5.882 -2.056,0 h -2.856 c -0.592,-3.673 -1.206,-7.346 -1.77,-11.023 h 2.626 l 1.028,5.71 1.029,-5.71 H 0.856 C 1.43,-7.35 2.012,-3.675 2.57,0 Z"
             style="fill:#ffffff;fill-opacity:1;fill-rule:nonzero;stroke:none"
             id="path1348"
             inkscape:connector-curvature="0" /></g><g
           id="g1350"
           transform="translate(982.5804,112.2444)"><path
             d="M 0,0 1.713,11.023 H 4.797 C 4.229,7.35 3.654,3.673 3.084,0 Z"
             style="fill:#ffffff;fill-opacity:1;fill-rule:nonzero;stroke:none"
             id="path1352"
             inkscape:connector-curvature="0" /></g></g></g><path
       d="m 453.97069,267.04831 h 122.346 v -24.676 h -122.346 z"
       style="fill:#a7348b;fill-opacity:1;fill-rule:nonzero;stroke:none"
       id="path1354"
       inkscape:connector-curvature="0" /><g
       id="g1356"
       transform="translate(-497.62031,164.70531)"><g
         id="g1358"
         clip-path="url(#clipPath1362)"><g
           id="g1364"
           transform="translate(999.9292,91.6339)"><path
             d="m 0,0 c -0.21,-0.578 -0.369,-1.261 -0.473,-2.05 -0.157,-0.788 -0.21,-1.576 -0.21,-2.258 0,-0.473 0.053,-0.789 0.21,-1 0.104,-0.209 0.316,-0.315 0.579,-0.315 0.648,0 0.962,0.695 1.156,1.209 0.157,0.577 0.314,1.208 0.42,1.996 0.157,0.788 0.21,1.524 0.21,2.26 0,0.473 -0.106,0.789 -0.21,1.051 C 1.576,1.103 1.366,1.209 1.156,1.209 0.485,1.209 0.149,0.59 0,0 m -0.263,-8.724 c -1.156,0 -2.155,0.421 -2.838,1.262 -0.735,0.893 -1.102,2.049 -1.102,3.467 0,1.157 0.157,2.26 0.472,3.364 0.264,1.103 0.683,2.049 1.209,2.785 0.524,0.683 1.103,1.261 1.733,1.575 0.628,0.394 1.517,0.579 2.259,0.579 1.211,0 2.208,-0.472 2.89,-1.313 0.736,-0.841 1.052,-1.944 1.052,-3.416 0,-1.156 -0.157,-2.312 -0.42,-3.363 C 4.676,-4.888 4.257,-5.832 3.731,-6.569 3.258,-7.305 2.681,-7.83 1.998,-8.198 1.276,-8.559 0.536,-8.724 -0.263,-8.724"
             style="fill:#ffffff;fill-opacity:1;fill-rule:nonzero;stroke:none"
             id="path1366"
             inkscape:connector-curvature="0" /></g></g></g><g
       id="g1368"
       transform="translate(491.06439,247.87821)"><path
         d="M 0,0 1.996,12.506 H 5.463 L 3.994,3.101 H 6.568 L 6.095,0 Z"
         style="fill:#ffffff;fill-opacity:1;fill-rule:nonzero;stroke:none"
         id="path1370"
         inkscape:connector-curvature="0" /></g><g
       id="g1372"
       transform="translate(516.23409,257.23191)"><path
         d="M 0,0 H -2.051 L -3.574,-9.354 H -7.041 L -5.571,0 h -2.102 l 0.526,3.153 h 7.673 z"
         style="fill:#ffffff;fill-opacity:1;fill-rule:nonzero;stroke:none"
         id="path1374"
         inkscape:connector-curvature="0" /></g><g
       id="g1376"
       transform="translate(-497.62031,164.70531)"><g
         id="g1378"
         clip-path="url(#clipPath1382)"><g
           id="g1384"
           transform="translate(1023.1542,87.8503)"><path
             d="m 0,0 c -0.316,-1.104 -0.734,-2.049 -1.26,-2.786 -0.473,-0.736 -1.052,-1.261 -1.735,-1.628 -0.721,-0.361 -1.459,-0.526 -2.258,-0.526 -1.209,0 -2.155,0.421 -2.838,1.261 -0.42,0.526 -0.736,1.103 -0.895,1.786 -0.157,0.473 -0.21,1.052 -0.21,1.682 0,2.083 0.459,4.434 1.682,6.148 0.473,0.683 1.105,1.262 1.735,1.576 0.628,0.393 1.516,0.579 2.261,0.579 1.206,0 2.152,-0.473 2.888,-1.314 C -0.104,6.147 0.212,5.36 0.369,4.36 0.42,4.045 0.42,3.73 0.42,3.362 0.42,2.223 0.279,1.108 0,0 m -3.782,-0.631 c 0.208,0.578 0.367,1.209 0.471,1.997 0.106,0.788 0.159,1.524 0.159,2.259 0,0.473 -0.053,0.789 -0.159,1.051 -0.104,0.21 -0.314,0.316 -0.576,0.316 -0.675,0 -0.955,-0.669 -1.156,-1.208 -0.159,-0.579 -0.316,-1.261 -0.473,-2.05 -0.106,-0.788 -0.157,-1.576 -0.157,-2.259 0,-0.473 0.051,-0.789 0.208,-1 0.106,-0.209 0.316,-0.315 0.579,-0.315 0.64,0 0.972,0.685 1.104,1.209"
             style="fill:#ffffff;fill-opacity:1;fill-rule:nonzero;stroke:none"
             id="path1386"
             inkscape:connector-curvature="0" /></g></g></g><g
       id="g1388"
       transform="translate(533.52279,257.33701)"><path
         d="M 0,0 0.524,3.048 H -5.728 L -7.675,-9.459 h 0.055 3.415 l 0.735,4.73 h 2.365 l 0.473,2.942 H -2.997 L -2.683,0 Z"
         style="fill:#ffffff;fill-opacity:1;fill-rule:nonzero;stroke:none"
         id="path1390"
         inkscape:connector-curvature="0" /></g><g
       id="g1392"
       transform="translate(539.30209,261.59331)"><path
         d="m 0,0 h -1.366 l 0.997,2.68 h 2.261 z"
         style="fill:#ffffff;fill-opacity:1;fill-rule:nonzero;stroke:none"
         id="path1394"
         inkscape:connector-curvature="0" /></g><g
       id="g1396"
       transform="translate(538.14619,252.23961)"><path
         d="M 0,0 0.051,4.624 -1.421,0 Z M -6.252,-4.361 -1.576,8.145 H 2.575 L 3.467,-4.361 h -3.573 l 0.053,1.839 h -2.102 l -0.526,-1.839 z"
         style="fill:#ffffff;fill-opacity:1;fill-rule:nonzero;stroke:none"
         id="path1398"
         inkscape:connector-curvature="0" /></g><g
       id="g1400"
       transform="translate(-497.62031,164.70531)"><g
         id="g1402"
         clip-path="url(#clipPath1406)"><g
           id="g1408"
           transform="translate(1047.6409,92.4747)"><path
             d="m 0,0 c -0.251,0.168 -0.795,0.314 -1.103,0.314 -0.84,0 -1.472,-0.42 -1.998,-1.208 -0.473,-0.788 -0.733,-1.787 -0.733,-3.1 0,-0.841 0.157,-1.418 0.472,-1.839 0.504,-0.809 1.65,-0.611 2.416,-0.421 l -0.577,-2.995 c -0.487,-0.24 -1.196,-0.316 -1.735,-0.316 -1.418,0 -2.468,0.421 -3.204,1.262 -0.789,0.841 -1.158,1.998 -1.158,3.574 0,2.468 0.579,4.413 1.735,5.937 1.105,1.471 2.627,2.26 4.466,2.26 0.652,0 1.376,-0.16 1.996,-0.367 z"
             style="fill:#ffffff;fill-opacity:1;fill-rule:nonzero;stroke:none"
             id="path1410"
             inkscape:connector-curvature="0" /></g></g></g><g
       id="g1412"
       transform="translate(553.22719,247.87821)"><path
         d="m 0,0 h -3.521 l 1.994,12.506 h 3.523 z"
         style="fill:#ffffff;fill-opacity:1;fill-rule:nonzero;stroke:none"
         id="path1414"
         inkscape:connector-curvature="0" /></g><g
       id="g1416"
       transform="translate(556.74769,260.38451)"><path
         d="M 0,0 H 3.518 L 1.994,-9.406 H 4.57 l -0.473,-3.1 h -6.095 z"
         style="fill:#ffffff;fill-opacity:1;fill-rule:nonzero;stroke:none"
         id="path1418"
         inkscape:connector-curvature="0" /></g><g
       id="g1420"
       transform="translate(-497.62031,164.70531)"><g
         id="g1422"
         clip-path="url(#clipPath1426)"><g
           id="g1428"
           transform="translate(974.3437,96.4314)"><path
             d="m 0,0 c 0,1.537 -1.291,2.828 -2.828,2.828 -1.539,0 -2.83,-1.291 -2.83,-2.828 v -0.308 h -0.306 c -1.539,0 -2.829,-1.291 -2.829,-2.89 0,-1.537 1.29,-2.829 2.829,-2.829 H 0 Z"
             style="fill:#ffffff;fill-opacity:1;fill-rule:nonzero;stroke:none"
             id="path1430"
             inkscape:connector-curvature="0" /></g><g
           id="g1432"
           transform="translate(974.3437,83.5797)"><path
             d="m 0,0 c 0,-1.538 -1.291,-2.829 -2.828,-2.829 -1.539,0 -2.83,1.291 -2.83,2.829 v 0.307 h -0.306 c -1.539,0 -2.829,1.292 -2.829,2.829 0,1.537 1.29,2.829 2.829,2.829 H 0 Z"
             style="fill:#e4b9d7;fill-opacity:1;fill-rule:nonzero;stroke:none"
             id="path1434"
             inkscape:connector-curvature="0" /></g><g
           id="g1436"
           transform="translate(975.2662,96.4314)"><path
             d="M 0,0 C 0,1.537 1.229,2.828 2.828,2.828 4.364,2.828 5.657,1.537 5.657,0 v -0.308 h 0.308 c 1.536,0 2.826,-1.291 2.826,-2.89 0,-1.537 -1.29,-2.829 -2.826,-2.829 H 0 Z"
             style="fill:#e4b9d7;fill-opacity:1;fill-rule:nonzero;stroke:none"
             id="path1438"
             inkscape:connector-curvature="0" /></g><g
           id="g1440"
           transform="translate(975.2662,83.5797)"><path
             d="m 0,0 c 0,-1.538 1.229,-2.829 2.828,-2.829 1.536,0 2.829,1.291 2.829,2.829 v 0.307 h 0.308 c 1.536,0 2.826,1.292 2.826,2.829 0,1.537 -1.29,2.829 -2.826,2.829 H 0 Z"
             style="fill:#ffffff;fill-opacity:1;fill-rule:nonzero;stroke:none"
             id="path1442"
             inkscape:connector-curvature="0" /></g></g></g><path
       d="m 580.70269,266.87931 h 122.541 v -24.507 h -122.541 z"
       style="fill:#0090d3;fill-opacity:1;fill-rule:nonzero;stroke:none"
       id="path1444"
       inkscape:connector-curvature="0" /><g
       id="g1446"
       transform="translate(-497.62031,164.70531)"><g
         id="g1448"
         clip-path="url(#clipPath1452)"><g
           id="g1454"
           transform="translate(1104.4557,96.302)"><path
             d="M 0,0 C 0,1.527 -1.282,2.808 -2.809,2.808 -4.336,2.808 -5.618,1.527 -5.618,0 v -0.306 h -0.306 c -1.527,0 -2.809,-1.281 -2.809,-2.869 0,-1.527 1.282,-2.81 2.809,-2.81 H 0 Z"
             style="fill:#ffffff;fill-opacity:1;fill-rule:nonzero;stroke:none"
             id="path1456"
             inkscape:connector-curvature="0" /></g><g
           id="g1458"
           transform="translate(1104.4557,83.5388)"><path
             d="m 0,0 c 0,-1.528 -1.282,-2.809 -2.809,-2.809 -1.527,0 -2.809,1.281 -2.809,2.809 v 0.305 h -0.306 c -1.527,0 -2.809,1.283 -2.809,2.809 0,1.527 1.282,2.809 2.809,2.809 H 0 Z"
             style="fill:#9fd1f0;fill-opacity:1;fill-rule:nonzero;stroke:none"
             id="path1460"
             inkscape:connector-curvature="0" /></g><g
           id="g1462"
           transform="translate(1105.3721,96.302)"><path
             d="M 0,0 C 0,1.527 1.221,2.808 2.808,2.808 4.335,2.808 5.617,1.527 5.617,0 v -0.306 h 0.306 c 1.527,0 2.809,-1.281 2.809,-2.869 0,-1.527 -1.282,-2.81 -2.809,-2.81 H 0 Z"
             style="fill:#9fd1f0;fill-opacity:1;fill-rule:nonzero;stroke:none"
             id="path1464"
             inkscape:connector-curvature="0" /></g><g
           id="g1466"
           transform="translate(1105.3721,83.5388)"><path
             d="m 0,0 c 0,-1.528 1.221,-2.809 2.808,-2.809 1.527,0 2.809,1.281 2.809,2.809 v 0.305 h 0.306 c 1.527,0 2.809,1.283 2.809,2.809 0,1.527 -1.282,2.809 -2.809,2.809 H 0 Z"
             style="fill:#ffffff;fill-opacity:1;fill-rule:nonzero;stroke:none"
             id="path1468"
             inkscape:connector-curvature="0" /></g><g
           id="g1470"
           transform="translate(1130.6069,92.2402)"><path
             d="m 0,0 c -0.193,-0.607 -0.374,-1.33 -0.513,-2.149 -0.135,-0.854 -0.204,-1.639 -0.204,-2.389 0,-0.478 0.069,-0.853 0.204,-1.058 0.139,-0.238 0.343,-0.342 0.65,-0.342 0.306,0 0.479,0.105 0.682,0.308 0.171,0.205 0.342,0.512 0.511,0.99 0.206,0.579 0.343,1.297 0.479,2.114 0.137,0.82 0.169,1.639 0.169,2.389 0,0.525 -0.012,1.434 -0.75,1.434 C 0.477,1.297 0.194,0.609 0,0 m -0.24,-9.213 c -1.261,0 -2.285,0.443 -3.035,1.365 -0.785,0.886 -1.161,2.116 -1.161,3.617 0,1.228 0.17,2.423 0.478,3.583 0.342,1.16 0.75,2.15 1.297,2.935 0.546,0.75 1.16,1.33 1.843,1.706 0.698,0.376 1.591,0.58 2.388,0.58 1.297,0 2.321,-0.478 3.038,-1.364 0.75,-0.888 1.125,-2.083 1.125,-3.651 0,-1.23 -0.171,-2.424 -0.478,-3.549 C 4.949,-5.152 4.504,-6.142 3.992,-6.962 3.481,-7.712 2.867,-8.258 2.151,-8.633 1.446,-9.065 0.578,-9.213 -0.24,-9.213"
             style="fill:#ffffff;fill-opacity:1;fill-rule:nonzero;stroke:none"
             id="path1472"
             inkscape:connector-curvature="0" /></g></g></g><g
       id="g1474"
       transform="translate(621.07869,248.00551)"><path
         d="m 0,0 2.114,13.239 h 3.72 L 4.23,3.276 H 6.96 L 6.449,0 Z"
         style="fill:#ffffff;fill-opacity:1;fill-rule:nonzero;stroke:none"
         id="path1476"
         inkscape:connector-curvature="0" /></g><g
       id="g1478"
       transform="translate(-497.62031,164.70531)"><g
         id="g1480"
         clip-path="url(#clipPath1484)"><g
           id="g1486"
           transform="translate(1145.4525,88.0092)"><path
             d="m 0,0 c 0,-0.649 0.067,-1.228 0.204,-1.775 0.204,-0.716 0.512,-1.331 0.92,-1.842 0.786,-0.922 1.775,-1.365 3.038,-1.365 0.837,0 1.691,0.162 2.422,0.58 0.682,0.375 1.298,0.921 1.809,1.671 0.546,0.82 0.99,1.81 1.296,2.971 0.342,1.125 0.478,2.319 0.478,3.549 0,1.568 -0.375,2.763 -1.125,3.651 C 8.292,8.326 7.266,8.803 6.005,8.803 5.194,8.803 4.328,8.608 3.616,8.224 2.899,7.848 2.285,7.268 1.774,6.518 1.227,5.733 0.784,4.743 0.477,3.583 0.154,2.409 0,1.221 0,0 m 4.538,-1.707 c -0.273,0 -0.478,0.104 -0.615,0.342 -0.136,0.205 -0.205,0.58 -0.205,1.058 0,0.75 0.069,1.535 0.205,2.389 0.102,0.819 0.272,1.569 0.477,2.149 0.177,0.614 0.5,1.296 1.229,1.296 0.722,0 0.784,-0.894 0.784,-1.433 0,-0.75 -0.067,-1.569 -0.17,-2.389 C 6.108,0.888 5.936,0.17 5.732,-0.409 5.596,-0.887 5.425,-1.195 5.22,-1.399 5.107,-1.628 4.763,-1.707 4.538,-1.707"
             style="fill:#ffffff;fill-opacity:1;fill-rule:nonzero;stroke:none"
             id="path1488"
             inkscape:connector-curvature="0" /></g></g></g><g
       id="g1490"
       transform="translate(647.72929,257.90151)"><path
         d="m 0,0 h -2.219 l -1.57,-9.896 h -3.72 L -5.938,0 h -2.218 l 0.545,3.343 h 8.122 z"
         style="fill:#ffffff;fill-opacity:1;fill-rule:nonzero;stroke:none"
         id="path1492"
         inkscape:connector-curvature="0" /></g><g
       id="g1494"
       transform="translate(-497.62031,164.70531)"><g
         id="g1496"
         clip-path="url(#clipPath1500)"><g
           id="g1502"
           transform="translate(1161.251,90.9437)"><path
             d="M 0,0 H 4.742 C 4.64,-2.661 4.129,-4.674 3.208,-5.972 2.286,-7.268 0.919,-7.917 -0.888,-7.917 c -1.434,0 -2.491,0.444 -3.242,1.297 -0.717,0.853 -1.092,2.116 -1.092,3.754 0,1.262 0.172,2.491 0.478,3.651 0.308,1.16 0.717,2.149 1.263,2.934 0.478,0.717 1.091,1.263 1.808,1.604 0.717,0.376 1.537,0.546 2.491,0.546 C 1.978,5.869 2.9,5.596 3.651,5.05 4.368,4.505 4.845,3.754 5.016,2.73 L 1.637,1.468 C 1.535,1.878 1.397,2.183 1.262,2.354 1.093,2.526 0.887,2.593 0.614,2.593 0.307,2.593 0.068,2.491 -0.136,2.287 -0.342,2.081 -0.546,1.775 -0.683,1.365 c -0.205,-0.58 -0.376,-1.33 -0.546,-2.252 -0.17,-0.921 -0.239,-1.741 -0.239,-2.389 0,-0.512 0.069,-0.887 0.205,-1.091 0.17,-0.205 0.409,-0.307 0.75,-0.307 0.41,0 0.752,0.17 0.991,0.545 0.238,0.341 0.409,0.853 0.441,1.501 h -1.261 z"
             style="fill:#ffffff;fill-opacity:1;fill-rule:nonzero;stroke:none"
             id="path1504"
             inkscape:connector-curvature="0" /></g><g
           id="g1506"
           transform="translate(1171.5212,83.0954)"><path
             d="m 0,0 c -0.307,-0.034 -0.58,-0.068 -0.886,-0.068 -1.263,0 -2.287,0.443 -3.037,1.365 -0.785,0.886 -1.161,2.116 -1.161,3.617 0,1.228 0.171,2.423 0.478,3.583 0.341,1.161 0.75,2.15 1.296,2.935 0.547,0.75 1.161,1.331 1.843,1.706 0.699,0.375 1.591,0.579 2.388,0.579 1.297,0 2.321,-0.477 3.071,-1.363 C 4.572,11.671 4.914,10.783 5.05,9.726 5.085,9.418 5.119,9.078 5.119,8.703 5.119,8.293 5.085,7.848 5.05,7.404 4.982,6.62 4.847,5.869 4.643,5.153 4.335,3.992 3.892,3.003 3.345,2.183 2.833,1.433 2.218,0.887 1.501,0.512 1.059,0.239 0.547,0.067 0,0 M -0.169,10.136 C -0.34,9.93 -0.512,9.623 -0.647,9.145 -0.853,8.565 -1.023,7.815 -1.16,6.996 -1.297,6.142 -1.365,5.357 -1.365,4.607 c 0,-0.478 0.068,-0.853 0.205,-1.058 0.137,-0.238 0.342,-0.342 0.648,-0.342 0.306,0 0.479,0.104 0.683,0.307 0.172,0.205 0.342,0.513 0.512,0.991 0.205,0.579 0.341,1.297 0.477,2.115 0.137,0.819 0.171,1.638 0.171,2.388 0,0.479 -0.034,0.853 -0.171,1.093 -0.136,0.238 -0.339,0.34 -0.58,0.34 -0.278,0 -0.554,-0.109 -0.749,-0.305"
             style="fill:#ffffff;fill-opacity:1;fill-rule:nonzero;stroke:none"
             id="path1508"
             inkscape:connector-curvature="0" /></g><g
           id="g1510"
           transform="translate(1178.6204,96.5396)"><path
             d="M 0,0 H 3.719 L 2.149,-9.964 H 4.844 L 4.333,-13.239 H -2.049 -2.117 C -1.318,-8.849 -0.702,-4.407 0,0"
             style="fill:#ffffff;fill-opacity:1;fill-rule:nonzero;stroke:none"
             id="path1512"
             inkscape:connector-curvature="0" /></g></g></g><path
       d="m 580.27969,349.67031 h 122.964 v -24.507 h -122.964 z"
       style="fill:#f39323;fill-opacity:1;fill-rule:nonzero;stroke:none"
       id="path1514"
       inkscape:connector-curvature="0" /><g
       id="g1516"
       transform="translate(-497.62031,164.70531)"><g
         id="g1518"
         clip-path="url(#clipPath1522)"><g
           id="g1524"
           transform="translate(1097.9601,179.0941)"><path
             d="M 0,0 C 0,1.526 -1.283,2.808 -2.81,2.808 -4.337,2.808 -5.619,1.526 -5.619,0 v -0.306 h -0.305 c -1.528,0 -2.81,-1.282 -2.81,-2.87 0,-1.527 1.282,-2.809 2.81,-2.809 H 0 Z"
             style="fill:#ffffff;fill-opacity:1;fill-rule:nonzero;stroke:none"
             id="path1526"
             inkscape:connector-curvature="0" /></g><g
           id="g1528"
           transform="translate(1097.9601,166.3315)"><path
             d="m 0,0 c 0,-1.529 -1.283,-2.809 -2.81,-2.809 -1.527,0 -2.809,1.28 -2.809,2.809 v 0.304 h -0.305 c -1.528,0 -2.81,1.284 -2.81,2.811 0,1.525 1.282,2.807 2.81,2.807 H 0 Z"
             style="fill:#fcd6ae;fill-opacity:1;fill-rule:nonzero;stroke:none"
             id="path1530"
             inkscape:connector-curvature="0" /></g><g
           id="g1532"
           transform="translate(1098.8762,179.0941)"><path
             d="M 0,0 C 0,1.526 1.221,2.808 2.809,2.808 4.335,2.808 5.617,1.526 5.617,0 v -0.306 h 0.306 c 1.526,0 2.808,-1.282 2.808,-2.87 0,-1.527 -1.282,-2.809 -2.808,-2.809 H 0 Z"
             style="fill:#fcd6ae;fill-opacity:1;fill-rule:nonzero;stroke:none"
             id="path1534"
             inkscape:connector-curvature="0" /></g><g
           id="g1536"
           transform="translate(1098.8762,166.3315)"><path
             d="m 0,0 c 0,-1.529 1.221,-2.809 2.809,-2.809 1.526,0 2.808,1.28 2.808,2.809 v 0.304 h 0.306 c 1.526,0 2.808,1.284 2.808,2.811 0,1.525 -1.282,2.807 -2.808,2.807 H 0 Z"
             style="fill:#ffffff;fill-opacity:1;fill-rule:nonzero;stroke:none"
             id="path1538"
             inkscape:connector-curvature="0" /></g></g></g><g
       id="g1540"
       transform="translate(614.58179,331.52811)"><path
         d="M 0,0 1.896,11.813 H 5.214 L 3.792,2.911 H 6.229 L 5.755,0 Z"
         style="fill:#ffffff;fill-opacity:1;fill-rule:nonzero;stroke:none"
         id="path1542"
         inkscape:connector-curvature="0" /></g><g
       id="g1544"
       transform="translate(-497.62031,164.70531)"><g
         id="g1546"
         clip-path="url(#clipPath1550)"><g
           id="g1552"
           transform="translate(1123.5425,169.7664)"><path
             d="m 0,0 c 0.169,0.169 0.338,0.475 0.475,0.881 0.169,0.507 0.304,1.151 0.438,1.895 0.102,0.744 0.169,1.455 0.169,2.1 0,0.439 -0.067,0.778 -0.169,0.98 C 0.779,6.06 0.609,6.162 0.373,6.162 -0.258,6.162 -0.571,5.605 -0.71,5.045 -0.913,4.503 -1.05,3.859 -1.151,3.081 -1.286,2.336 -1.32,1.625 -1.32,0.982 c 0,-0.44 0.034,-0.746 0.169,-0.947 0.101,-0.204 0.305,-0.306 0.575,-0.306 0.195,0 0.481,0.081 0.576,0.271 M 0.711,9.073 C 1.829,9.073 2.742,8.7 3.419,7.889 4.095,7.11 4.435,6.025 4.435,4.638 4.435,3.52 4.266,2.472 3.995,1.456 3.723,0.406 3.318,-0.44 2.844,-1.184 2.37,-1.827 1.829,-2.336 1.219,-2.675 0.58,-3.045 -0.216,-3.182 -0.948,-3.182 c -1.117,0 -1.998,0.406 -2.674,1.219 -0.71,0.779 -1.05,1.861 -1.05,3.217 0,1.082 0.17,2.166 0.441,3.215 0.27,1.016 0.677,1.895 1.151,2.606 0.474,0.677 1.015,1.185 1.659,1.524 0.642,0.35 1.408,0.474 2.132,0.474"
             style="fill:#ffffff;fill-opacity:1;fill-rule:nonzero;stroke:none"
             id="path1554"
             inkscape:connector-curvature="0" /></g><g
           id="g1556"
           transform="translate(1136.2709,173.1865)"><path
             d="m 0,0 c -0.136,-0.712 -0.169,-1.422 -0.169,-2.166 0,-0.577 0.033,-1.118 0.169,-1.593 0.169,-0.642 0.44,-1.184 0.846,-1.624 0.677,-0.814 1.523,-1.219 2.64,-1.219 0.733,0 1.528,0.134 2.167,0.507 0.609,0.339 1.185,0.848 1.625,1.491 0.508,0.744 0.88,1.589 1.151,2.639 0.102,0.306 0.168,0.611 0.202,0.915 C 8.8,-0.306 8.868,0.439 8.868,1.218 8.868,1.861 8.8,2.402 8.631,2.911 8.497,3.52 8.225,4.028 7.852,4.468 7.176,5.28 6.295,5.653 5.145,5.653 4.404,5.653 3.681,5.512 3.013,5.179 2.369,4.839 1.861,4.332 1.387,3.655 0.914,2.944 0.508,2.065 0.237,1.049 0.135,0.677 0.068,0.338 0,0 M 3.723,1.625 C 3.863,2.184 4.177,2.742 4.807,2.742 5.044,2.742 5.213,2.64 5.348,2.436 5.45,2.234 5.518,1.895 5.518,1.456 5.518,0.811 5.45,0.1 5.348,-0.644 5.213,-1.388 5.077,-2.032 4.909,-2.54 4.772,-2.945 4.603,-3.251 4.434,-3.42 4.341,-3.612 4.052,-3.691 3.858,-3.691 c -0.27,0 -0.474,0.102 -0.574,0.305 -0.137,0.202 -0.171,0.508 -0.171,0.948 0,0.643 0.034,1.353 0.171,2.099 0.1,0.778 0.27,1.421 0.439,1.964"
             style="fill:#ffffff;fill-opacity:1;fill-rule:nonzero;stroke:none"
             id="path1558"
             inkscape:connector-curvature="0" /></g></g></g><g
       id="g1560"
       transform="translate(638.37959,340.32801)"><path
         d="M 0,0 H -1.963 L -3.351,-8.8 H -6.668 L -5.281,0 h -1.963 l 0.474,3.013 h 7.244 z"
         style="fill:#ffffff;fill-opacity:1;fill-rule:nonzero;stroke:none"
         id="path1562"
         inkscape:connector-curvature="0" /></g><g
       id="g1564"
       transform="translate(659.57009,343.34081)"><path
         d="M 0,0 H -3.859 L -5.856,-6.229 -5.89,0 h -3.859 l -2.539,-10.9 -0.202,-0.913 h 0.202 2.64 l 1.659,8.766 0.169,-8.766 h 2.234 l 2.776,8.733 -1.083,-8.733 h 2.878 z"
         style="fill:#ffffff;fill-opacity:1;fill-rule:nonzero;stroke:none"
         id="path1566"
         inkscape:connector-curvature="0" /></g><g
       id="g1568"
       transform="translate(665.02009,335.65801)"><path
         d="M 0,0 0.035,4.366 -1.321,0 Z M -5.923,-4.13 -1.488,7.683 H 2.437 L 3.25,-4.13 h -3.317 v 1.725 H -2.031 L -2.539,-4.13 Z"
         style="fill:#ffffff;fill-opacity:1;fill-rule:nonzero;stroke:none"
         id="path1570"
         inkscape:connector-curvature="0" /></g><g
       id="g1572"
       transform="translate(676.83539,331.52811)"><path
         d="M 0,0 H -3.047 L -4.165,6.126 -5.214,0 h -2.809 l 1.894,11.813 h 3.048 l 1.049,-6.364 1.118,6.364 h 2.775 z"
         style="fill:#ffffff;fill-opacity:1;fill-rule:nonzero;stroke:none"
         id="path1574"
         inkscape:connector-curvature="0" /></g><g
       id="g1576"
       transform="translate(682.31899,331.52811)"><path
         d="M 0,0 H 3.385 L 3.893,1.725 H 5.857 L 5.822,0 H 9.173 L 8.326,11.813 H 4.435 Z M 4.569,4.13 5.959,8.496 5.89,4.13 Z"
         style="fill:#ffffff;fill-opacity:1;fill-rule:nonzero;stroke:none"
         id="path1578"
         inkscape:connector-curvature="0" /></g><g
       id="g1580"
       transform="translate(681.77779,331.52811)"><path
         d="m 0,0 h -3.284 l 1.86,11.813 h 3.319 z"
         style="fill:#ffffff;fill-opacity:1;fill-rule:nonzero;stroke:none"
         id="path1582"
         inkscape:connector-curvature="0" /></g><path
       d="m 453.92069,377.26831 h 122.402 v -24.48 h -122.402 z"
       style="fill:#009e4c;fill-opacity:1;fill-rule:nonzero;stroke:none"
       id="path1584"
       inkscape:connector-curvature="0" /><g
       id="g1586"
       transform="translate(-497.62031,164.70531)"><g
         id="g1588"
         clip-path="url(#clipPath1592)"><g
           id="g1594"
           transform="translate(973.5386,206.6978)"><path
             d="M 0,0 C 0,1.525 -1.282,2.806 -2.806,2.806 -4.332,2.806 -5.613,1.525 -5.613,0 v -0.305 h -0.304 c -1.526,0 -2.806,-1.281 -2.806,-2.867 0,-1.525 1.28,-2.806 2.806,-2.806 H 0 Z"
             style="fill:#ffffff;fill-opacity:1;fill-rule:nonzero;stroke:none"
             id="path1596"
             inkscape:connector-curvature="0" /></g><g
           id="g1598"
           transform="translate(973.5386,193.9495)"><path
             d="m 0,0 c 0,-1.526 -1.282,-2.806 -2.806,-2.806 -1.526,0 -2.807,1.28 -2.807,2.806 v 0.305 h -0.304 c -1.526,0 -2.806,1.281 -2.806,2.806 0,1.525 1.28,2.805 2.806,2.805 H 0 Z"
             style="fill:#b4d9b9;fill-opacity:1;fill-rule:nonzero;stroke:none"
             id="path1600"
             inkscape:connector-curvature="0" /></g><g
           id="g1602"
           transform="translate(974.4537,206.6978)"><path
             d="M 0,0 C 0,1.525 1.22,2.806 2.805,2.806 4.33,2.806 5.611,1.525 5.611,0 v -0.305 h 0.305 c 1.525,0 2.805,-1.281 2.805,-2.867 0,-1.525 -1.28,-2.806 -2.805,-2.806 H 0 Z"
             style="fill:#b4d9b9;fill-opacity:1;fill-rule:nonzero;stroke:none"
             id="path1604"
             inkscape:connector-curvature="0" /></g><g
           id="g1606"
           transform="translate(974.4537,193.9495)"><path
             d="m 0,0 c 0,-1.526 1.22,-2.806 2.805,-2.806 1.525,0 2.806,1.28 2.806,2.806 v 0.305 h 0.305 c 1.525,0 2.805,1.281 2.805,2.806 0,1.525 -1.28,2.805 -2.805,2.805 H 0 Z"
             style="fill:#ffffff;fill-opacity:1;fill-rule:nonzero;stroke:none"
             id="path1608"
             inkscape:connector-curvature="0" /></g></g></g><g
       id="g1610"
       transform="translate(494.60849,367.87241)"><path
         d="m 0,0 -1.655,-8.712 h -2.809 l 2.7,11.736 H 2.052 L 2.089,-3.168 4.068,3.024 H 7.92 L 6.913,-8.712 H 4.068 l 1.08,8.676 -2.807,-8.676 H 0.144 Z"
         style="fill:#ffffff;fill-opacity:1;fill-rule:nonzero;stroke:none"
         id="path1612"
         inkscape:connector-curvature="0" /></g><g
       id="g1614"
       transform="translate(502.52859,359.16031)"><path
         d="M 0,0 1.872,11.736 H 7.669 L 7.237,8.893 H 4.681 L 4.429,7.416 H 6.733 L 6.301,4.644 H 4.033 L 3.745,3.024 H 6.301 L 5.797,0 Z"
         style="fill:#ffffff;fill-opacity:1;fill-rule:nonzero;stroke:none"
         id="path1616"
         inkscape:connector-curvature="0" /></g><g
       id="g1618"
       transform="translate(-497.62031,164.70531)"><g
         id="g1620"
         clip-path="url(#clipPath1624)"><g
           id="g1626"
           transform="translate(1012.1732,201.2591)"><path
             d="M 0,0 H 4.177 C 4.069,-2.376 3.637,-4.14 2.809,-5.292 1.98,-6.444 0.757,-7.021 -0.792,-7.021 c -1.259,0 -2.195,0.361 -2.843,1.117 -0.649,0.792 -0.973,1.872 -0.973,3.348 0,1.116 0.109,2.196 0.397,3.204 0.287,1.045 0.647,1.908 1.152,2.628 0.396,0.613 0.936,1.08 1.584,1.404 0.648,0.325 1.367,0.505 2.16,0.505 1.008,0 1.871,-0.253 2.521,-0.721 C 3.852,3.96 4.249,3.276 4.429,2.376 L 1.405,1.26 C 1.333,1.656 1.188,1.908 1.081,2.052 0.936,2.196 0.757,2.268 0.505,2.268 0.253,2.268 0.073,2.16 -0.108,2.016 -0.323,1.836 -0.467,1.548 -0.612,1.188 -0.792,0.648 -0.935,0 -1.079,-0.828 -1.223,-1.656 -1.296,-2.34 -1.296,-2.952 c 0,-0.432 0.073,-0.757 0.181,-0.936 0.143,-0.18 0.36,-0.288 0.648,-0.288 0.359,0 0.647,0.18 0.863,0.504 0.217,0.288 0.325,0.755 0.361,1.332 h -1.08 z"
             style="fill:#ffffff;fill-opacity:1;fill-rule:nonzero;stroke:none"
             id="path1628"
             inkscape:connector-curvature="0" /></g></g></g><g
       id="g1630"
       transform="translate(517.68599,359.16031)"><path
         d="m 0,0 4.391,11.736 h 3.89 L 9.107,0 H 5.797 V 1.728 H 3.852 L 3.347,0 Z M 4.572,4.104 H 5.868 L 5.904,8.46 Z"
         style="fill:#ffffff;fill-opacity:1;fill-rule:nonzero;stroke:none"
         id="path1632"
         inkscape:connector-curvature="0" /></g><g
       id="g1634"
       transform="translate(-497.62031,164.70531)"><g
         id="g1636"
         clip-path="url(#clipPath1640)"><g
           id="g1642"
           transform="translate(1029.0216,198.0549)"><path
             d="m 0,0 c 0.361,-0.288 0.756,-0.54 1.153,-0.684 0.395,-0.18 0.792,-0.252 1.153,-0.252 0.323,0 0.61,0.072 0.791,0.252 0.181,0.179 0.287,0.432 0.287,0.756 0,0.252 -0.07,0.504 -0.251,0.792 C 2.988,1.116 2.665,1.476 2.198,1.908 1.657,2.448 1.261,2.917 1.045,3.348 0.865,3.744 0.756,4.212 0.756,4.716 c 0,1.116 0.361,2.016 1.045,2.664 0.72,0.648 1.692,1.009 2.915,1.009 0.468,0 0.938,-0.072 1.406,-0.18 C 6.552,8.1 7.022,7.921 7.454,7.704 L 6.986,4.824 C 6.661,5.076 6.301,5.256 5.977,5.4 5.617,5.544 5.329,5.58 5.005,5.58 4.716,5.58 4.501,5.509 4.357,5.364 4.214,5.22 4.105,5.04 4.105,4.788 4.105,4.464 4.429,3.996 5.041,3.384 5.114,3.312 5.149,3.276 5.222,3.204 5.833,2.628 6.229,2.089 6.409,1.692 6.589,1.26 6.697,0.756 6.697,0.18 c 0,-1.26 -0.396,-2.232 -1.152,-2.952 -0.792,-0.72 -1.836,-1.08 -3.168,-1.08 -0.576,0 -1.116,0.072 -1.656,0.18 -0.505,0.144 -0.936,0.324 -1.26,0.576 z"
             style="fill:#ffffff;fill-opacity:1;fill-rule:nonzero;stroke:none"
             id="path1644"
             inkscape:connector-curvature="0" /></g></g></g><g
       id="g1646"
       transform="translate(538.35059,359.16031)"><path
         d="M 0,0 1.836,11.736 H 7.668 L 7.201,8.893 H 4.68 L 4.428,7.416 H 6.731 L 6.3,4.644 H 3.995 L 3.745,3.024 H 6.263 L 5.796,0 Z"
         style="fill:#ffffff;fill-opacity:1;fill-rule:nonzero;stroke:none"
         id="path1648"
         inkscape:connector-curvature="0" /></g><g
       id="g1650"
       transform="translate(545.44259,359.16031)"><path
         d="m 0,0 1.871,11.736 h 3.025 l 1.08,-6.3 1.08,6.3 H 9.829 L 7.956,0 H 4.968 L 3.852,6.084 2.808,0 Z"
         style="fill:#ffffff;fill-opacity:1;fill-rule:nonzero;stroke:none"
         id="path1652"
         inkscape:connector-curvature="0" /></g><g
       id="g1654"
       transform="translate(562.21969,370.89671)"><path
         d="m 0,0 0.828,-11.736 h -3.313 v 1.728 h -1.944 l -0.503,-1.728 H -8.28 L -3.888,0 Z m -2.413,-7.632 0.037,4.356 -1.332,-4.356 z"
         style="fill:#ffffff;fill-opacity:1;fill-rule:nonzero;stroke:none"
         id="path1656"
         inkscape:connector-curvature="0" /></g><path
       d="m 528.70169,363.73231 h 2.557 v 1.945 h -2.557 z"
       style="fill:#ffffff;fill-opacity:1;fill-rule:nonzero;stroke:none"
       id="path1658"
       inkscape:connector-curvature="0" /><path
       d="m 453.91969,349.66731 h 122.402 v -24.479 h -122.402 z"
       style="fill:#42338b;fill-opacity:1;fill-rule:nonzero;stroke:none"
       id="path1660"
       inkscape:connector-curvature="0" /><g
       id="g1662"
       transform="translate(-497.62031,164.70531)"><g
         id="g1664"
         clip-path="url(#clipPath1668)"><g
           id="g1670"
           transform="translate(1004.6542,164.9158)"><path
             d="m 0,0 c -1.444,0 -2.583,0.493 -3.419,1.404 -0.798,0.913 -1.215,2.204 -1.215,3.837 0,1.329 0.151,2.545 0.494,3.761 0.341,1.253 0.797,2.279 1.367,3.115 0.569,0.797 1.216,1.405 1.937,1.785 0.743,0.433 1.653,0.608 2.508,0.608 1.366,0 2.43,-0.494 3.228,-1.444 C 5.66,12.155 6.038,10.863 6.038,9.23 6.038,7.521 5.811,5.963 5.28,4.482 4.748,3.037 4.027,1.936 3.153,1.254 L 4.483,-0.38 1.215,-2.014 0.684,-1.103 Z M 0.532,10.749 C 0.341,10.521 0.151,10.179 0,9.724 -0.228,9.078 -0.38,8.318 -0.532,7.444 -0.646,6.532 -0.722,5.697 -0.722,4.937 c 0,-0.532 0.076,-0.911 0.19,-1.139 0.152,-0.229 0.38,-0.342 0.683,-0.342 0.368,0 0.484,0.116 0.722,0.304 0.234,0.182 0.381,0.57 0.532,1.063 0.228,0.608 0.381,1.368 0.494,2.242 0.152,0.873 0.228,1.709 0.228,2.469 0,0.532 -0.076,0.911 -0.228,1.177 -0.113,0.228 -0.342,0.342 -0.609,0.342 -0.32,0 -0.54,-0.084 -0.758,-0.304"
             style="fill:#ffffff;fill-opacity:1;fill-rule:nonzero;stroke:none"
             id="path1672"
             inkscape:connector-curvature="0" /></g><g
           id="g1674"
           transform="translate(1020.8348,170.1956)"><path
             d="m 0,0 v -0.152 c -0.265,-1.672 -0.684,-2.849 -1.254,-3.534 -0.455,-0.532 -1.024,-0.948 -1.709,-1.215 -0.683,-0.266 -1.481,-0.379 -2.431,-0.379 -1.442,0 -2.544,0.304 -3.265,0.911 -0.685,0.608 -1.065,1.558 -1.065,2.812 0,0.228 0.038,0.454 0.038,0.682 0.039,0.229 0.077,0.532 0.115,0.875 l 1.406,8.964 h 3.912 L -5.735,-0.38 c -0.037,-0.077 -0.037,-0.152 -0.037,-0.191 v -0.227 c 0,-0.228 0.074,-0.417 0.189,-0.57 0.151,-0.114 0.342,-0.189 0.569,-0.189 0.304,0 0.532,0.075 0.722,0.303 0.153,0.19 0.304,0.494 0.342,0.874 l 1.482,9.344 h 3.912 z"
             style="fill:#ffffff;fill-opacity:1;fill-rule:nonzero;stroke:none"
             id="path1676"
             inkscape:connector-curvature="0" /></g></g></g><g
       id="g1678"
       transform="translate(527.96329,329.92471)"><path
         d="m 0,0 h -3.608 -0.266 l 0.266,1.822 1.936,12.118 h 3.875 z"
         style="fill:#ffffff;fill-opacity:1;fill-rule:nonzero;stroke:none"
         id="path1680"
         inkscape:connector-curvature="0" /></g><g
       id="g1682"
       transform="translate(540.76419,332.01331)"><path
         d="M 0,0 -0.797,-2.089 H 0 3.191 L 3.8,-0.038 H 5.433 6.116 L 6.079,-2.089 h 3.95 L 9.042,11.851 H 5.433 4.445 Z M 4.636,2.773 5.433,5.356 6.231,7.939 6.192,2.773 Z"
         style="fill:#ffffff;fill-opacity:1;fill-rule:nonzero;stroke:none"
         id="path1684"
         inkscape:connector-curvature="0" /></g><g
       id="g1686"
       transform="translate(539.35859,329.92471)"><path
         d="M 0,0 H -3.608 L -4.937,7.217 -6.153,0 h -3.305 l 2.203,13.94 h 3.609 l 1.254,-7.483 1.291,7.483 h 3.267 z"
         style="fill:#ffffff;fill-opacity:1;fill-rule:nonzero;stroke:none"
         id="path1688"
         inkscape:connector-curvature="0" /></g><g
       id="g1690"
       transform="translate(-497.62031,164.70531)"><g
         id="g1692"
         clip-path="url(#clipPath1696)"><g
           id="g1698"
           transform="translate(985.7825,179.0967)"><path
             d="M 0,0 C 0,1.52 -1.228,2.806 -2.807,2.806 -4.327,2.806 -5.613,1.52 -5.613,0 V -0.292 L -5.907,-0.35 c -1.577,0 -2.806,-1.228 -2.806,-2.808 0,-1.519 1.229,-2.806 2.806,-2.806 H 0 Z"
             style="fill:#ffffff;fill-opacity:1;fill-rule:nonzero;stroke:none"
             id="path1700"
             inkscape:connector-curvature="0" /></g><g
           id="g1702"
           transform="translate(985.7825,166.3509)"><path
             d="m 0,0 c 0,-1.58 -1.228,-2.808 -2.807,-2.808 -1.52,0 -2.806,1.228 -2.806,2.808 v 0.292 h -0.294 c -1.577,0 -2.806,1.286 -2.806,2.804 0,1.58 1.229,2.809 2.806,2.809 H 0 Z"
             style="fill:#b1a8d3;fill-opacity:1;fill-rule:nonzero;stroke:none"
             id="path1704"
             inkscape:connector-curvature="0" /></g><g
           id="g1706"
           transform="translate(986.66,179.0967)"><path
             d="M 0,0 C 0,1.52 1.286,2.806 2.806,2.806 4.385,2.806 5.613,1.52 5.613,0 V -0.292 L 5.965,-0.35 c 1.518,0 2.805,-1.228 2.805,-2.808 0,-1.519 -1.287,-2.806 -2.805,-2.806 H 0 Z"
             style="fill:#b1a8d3;fill-opacity:1;fill-rule:nonzero;stroke:none"
             id="path1708"
             inkscape:connector-curvature="0" /></g><g
           id="g1710"
           transform="translate(986.66,166.3509)"><path
             d="m 0,0 c 0,-1.58 1.286,-2.808 2.806,-2.808 1.579,0 2.807,1.228 2.807,2.808 v 0.292 h 0.352 c 1.518,0 2.805,1.286 2.805,2.804 0,1.58 -1.287,2.809 -2.805,2.809 L 0,5.905 Z"
             style="fill:#ffffff;fill-opacity:1;fill-rule:nonzero;stroke:none"
             id="path1712"
             inkscape:connector-curvature="0" /></g></g></g><path
       d="m 580.27969,377.26731 h 122.541 v -24.507 h -122.541 z"
       style="fill:#ffed00;fill-opacity:1;fill-rule:nonzero;stroke:none"
       id="path1714"
       inkscape:connector-curvature="0" /><g
       id="g1716"
       transform="translate(-497.62031,164.70531)"><g
         id="g1718"
         clip-path="url(#clipPath1722)"><g
           id="g1724"
           transform="translate(1097.8931,206.6917)"><path
             d="M 0,0 C 0,1.527 -1.283,2.809 -2.81,2.809 -4.337,2.809 -5.619,1.527 -5.619,0 v -0.306 h -0.305 c -1.527,0 -2.81,-1.282 -2.81,-2.87 0,-1.527 1.283,-2.809 2.81,-2.809 H 0 Z"
             style="fill:#00963f;fill-opacity:1;fill-rule:nonzero;stroke:none"
             id="path1726"
             inkscape:connector-curvature="0" /></g><g
           id="g1728"
           transform="translate(1097.8931,193.9285)"><path
             d="m 0,0 c 0,-1.528 -1.283,-2.809 -2.81,-2.809 -1.527,0 -2.809,1.281 -2.809,2.809 v 0.305 h -0.305 c -1.527,0 -2.81,1.283 -2.81,2.81 0,1.527 1.283,2.809 2.81,2.809 H 0 Z"
             style="fill:#a8d3ae;fill-opacity:1;fill-rule:nonzero;stroke:none"
             id="path1730"
             inkscape:connector-curvature="0" /></g><g
           id="g1732"
           transform="translate(1098.8096,206.6917)"><path
             d="M 0,0 C 0,1.527 1.221,2.809 2.809,2.809 4.335,2.809 5.618,1.527 5.618,0 v -0.306 h 0.305 c 1.527,0 2.809,-1.282 2.809,-2.87 0,-1.527 -1.282,-2.809 -2.809,-2.809 H 0 Z"
             style="fill:#a8d3ae;fill-opacity:1;fill-rule:nonzero;stroke:none"
             id="path1734"
             inkscape:connector-curvature="0" /></g><g
           id="g1736"
           transform="translate(1098.8096,193.9285)"><path
             d="m 0,0 c 0,-1.528 1.221,-2.809 2.809,-2.809 1.526,0 2.809,1.281 2.809,2.809 v 0.305 h 0.305 c 1.527,0 2.809,1.283 2.809,2.81 0,1.527 -1.282,2.809 -2.809,2.809 H 0 Z"
             style="fill:#00963f;fill-opacity:1;fill-rule:nonzero;stroke:none"
             id="path1738"
             inkscape:connector-curvature="0" /></g></g></g><g
       id="g1740"
       transform="translate(618.45089,358.76531)"><path
         d="m 0,0 h -3.441 l 1.444,9.149 h -2.04 l 0.496,3.106 H 3.971 L 3.476,9.149 H 1.444 Z M 3.255,0 H 6.67 L 8.619,12.255 H 5.194 Z M 12.533,9.092 10.802,0 H 7.856 l 2.82,12.255 h 4.005 l 0.035,-6.465 2.08,6.465 h 3.989 L 19.736,0 H 16.779 L 17.896,9.074 14.991,0 H 12.677 Z M 20.799,0 22.748,12.255 h 6.068 L 28.347,9.283 H 25.702 L 25.441,7.722 h 2.392 L 27.39,4.851 H 24.997 L 24.718,3.167 h 2.654 L 26.868,0 Z M 32.401,9.092 32.544,0 h 2.315 L 37.765,9.074 36.646,0 h 2.957 l 1.049,12.255 H 36.664 L 34.585,5.79 34.55,12.255 H 30.544 L 27.725,0 H 30.67 Z M 39.618,0 44.225,12.255 h 4.038 L 49.127,0 H 45.67 l 0.016,1.805 H 43.663 L 43.128,0 Z m 4.768,4.281 h 1.367 l 0.043,4.542 z M 49.684,0 51.638,12.255 h 3.166 l 1.101,-6.582 1.148,6.582 h 2.872 L 58.002,0 H 54.856 L 53.687,6.347 52.603,0 Z m 10.037,0 h 3.415 l 1.948,12.255 H 61.66 Z m 3.88,0 4.607,12.255 h 4.036 L 73.11,0 h -3.459 l 0.018,1.805 H 67.646 L 67.11,0 Z m 4.767,4.281 h 1.367 l 0.043,4.542 z"
         style="fill:#00963f;fill-opacity:1;fill-rule:nonzero;stroke:none"
         id="path1742"
         inkscape:connector-curvature="0" /></g><path
       d="m 453.92069,322.08031 h 122.541 v -24.507 h -122.541 z"
       style="fill:#a20635;fill-opacity:1;fill-rule:nonzero;stroke:none"
       id="path1744"
       inkscape:connector-curvature="0" /><g
       id="g1746"
       transform="translate(-497.62031,164.70531)"><g
         id="g1748"
         clip-path="url(#clipPath1752)"><g
           id="g1754"
           transform="translate(971.0178,151.5033)"><path
             d="m 0,0 c 0,1.527 -1.283,2.808 -2.809,2.808 -1.528,0 -2.81,-1.281 -2.81,-2.808 v -0.306 h -0.305 c -1.527,0 -2.809,-1.281 -2.809,-2.87 0,-1.526 1.282,-2.809 2.809,-2.809 H 0 Z"
             style="fill:#ffffff;fill-opacity:1;fill-rule:nonzero;stroke:none"
             id="path1756"
             inkscape:connector-curvature="0" /></g><g
           id="g1758"
           transform="translate(971.0178,138.7401)"><path
             d="m 0,0 c 0,-1.527 -1.283,-2.809 -2.809,-2.809 -1.528,0 -2.81,1.282 -2.81,2.809 v 0.305 h -0.305 c -1.527,0 -2.809,1.283 -2.809,2.809 0,1.527 1.282,2.809 2.809,2.809 H 0 Z"
             style="fill:#dda2a6;fill-opacity:1;fill-rule:nonzero;stroke:none"
             id="path1760"
             inkscape:connector-curvature="0" /></g><g
           id="g1762"
           transform="translate(971.9331,151.5033)"><path
             d="M 0,0 C 0,1.527 1.221,2.808 2.809,2.808 4.336,2.808 5.618,1.527 5.618,0 v -0.306 h 0.306 c 1.527,0 2.809,-1.281 2.809,-2.87 0,-1.526 -1.282,-2.809 -2.809,-2.809 H 0 Z"
             style="fill:#dda2a6;fill-opacity:1;fill-rule:nonzero;stroke:none"
             id="path1764"
             inkscape:connector-curvature="0" /></g><g
           id="g1766"
           transform="translate(971.9331,138.7401)"><path
             d="m 0,0 c 0,-1.527 1.221,-2.809 2.809,-2.809 1.527,0 2.809,1.282 2.809,2.809 v 0.305 h 0.306 c 1.527,0 2.809,1.283 2.809,2.809 0,1.527 -1.282,2.809 -2.809,2.809 H 0 Z"
             style="fill:#ffffff;fill-opacity:1;fill-rule:nonzero;stroke:none"
             id="path1768"
             inkscape:connector-curvature="0" /></g><g
           id="g1770"
           transform="translate(1002.9025,143.4704)"><path
             d="m 0,0 c -0.145,-0.897 -0.475,-2.375 -1.062,-3.111 -0.38,-0.454 -0.879,-0.78 -1.443,-0.986 -0.575,-0.21 -1.251,-0.341 -2.047,-0.341 -1.254,0 -2.163,0.227 -2.733,0.758 -0.607,0.533 -0.91,1.329 -0.91,2.353 0,0.442 0.058,0.889 0.114,1.327 l 1.175,7.512 h 3.302 l -1.252,-7.815 c -0.053,-0.296 -0.081,-0.602 0.151,-0.834 0.114,-0.115 0.265,-0.19 0.456,-0.19 0.266,0 0.472,0.091 0.606,0.265 0.133,0.169 0.249,0.42 0.304,0.759 l 1.252,7.815 h 3.3 z"
             style="fill:#ffffff;fill-opacity:1;fill-rule:nonzero;stroke:none"
             id="path1772"
             inkscape:connector-curvature="0" /></g><g
           id="g1774"
           transform="translate(993.0757,149.9203)"><path
             d="m 0,0 c 0.759,-0.758 1.138,-1.859 1.138,-3.415 0,-1.176 -0.189,-2.313 -0.568,-3.375 -0.379,-1.101 -0.835,-1.974 -1.405,-2.542 -0.493,-0.494 -1.024,-0.835 -1.631,-1.026 -0.972,-0.191 -1.879,-0.302 -2.883,-0.302 h -2.467 l 1.859,11.722 h 2.505 C -2.229,1.062 -0.93,0.879 0,0 m -2.883,-7.246 c 0.172,0.242 0.379,0.759 0.568,1.556 0.153,0.795 0.267,1.593 0.267,2.351 0,0.532 -0.077,0.872 -0.267,1.139 -0.171,0.257 -0.495,0.38 -0.796,0.38 L -4.06,-7.777 c 0.251,0 0.492,0.016 0.722,0.151 0.121,0.072 0.371,0.263 0.455,0.38"
             style="fill:#ffffff;fill-opacity:1;fill-rule:nonzero;stroke:none"
             id="path1776"
             inkscape:connector-curvature="0" /></g><g
           id="g1778"
           transform="translate(1008.4412,148.4037)"><path
             d="m 0,0 h -0.19 l -0.379,-2.581 c 0.091,-0.039 0.222,-0.037 0.304,-0.037 0.413,0 0.766,0.123 1.062,0.416 0.227,0.266 0.341,0.684 0.341,1.252 0,0.305 -0.114,0.57 -0.303,0.722 C 0.576,-0.035 0.308,0 0,0 m -1.023,-5.236 -0.608,-3.908 h -3.301 l 1.897,11.723 h 2.807 C 0.903,2.579 2.209,2.528 3.15,1.82 3.604,1.479 3.869,1.062 4.059,0.493 4.134,0.151 4.212,-0.266 4.212,-0.683 4.212,-1.215 4.134,-1.67 4.059,-2.087 3.869,-2.885 3.49,-3.568 2.96,-4.061 1.851,-5.107 0.41,-5.236 -1.023,-5.236"
             style="fill:#ffffff;fill-opacity:1;fill-rule:nonzero;stroke:none"
             id="path1780"
             inkscape:connector-curvature="0" /></g></g></g><g
       id="g1782"
       transform="translate(520.91239,303.96501)"><path
         d="M 0,0 V 0.038 Z"
         style="fill:#ffffff;fill-opacity:1;fill-rule:nonzero;stroke:none"
         id="path1784"
         inkscape:connector-curvature="0" /></g><g
       id="g1786"
       transform="translate(520.91269,306.88631)"><path
         d="m 0,0 -0.456,-2.921 h -5.728 l 1.859,11.722 h 3.301 L -2.429,0 Z"
         style="fill:#ffffff;fill-opacity:1;fill-rule:nonzero;stroke:none"
         id="path1788"
         inkscape:connector-curvature="0" /></g><g
       id="g1790"
       transform="translate(520.91239,306.84861)"><path
         d="M 0,0 V 0.038 Z"
         style="fill:#ffffff;fill-opacity:1;fill-rule:nonzero;stroke:none"
         id="path1792"
         inkscape:connector-curvature="0" /></g><g
       id="g1794"
       transform="translate(526.79269,308.06261)"><path
         d="M 0,0 0.038,4.364 -1.328,0 Z M 2.429,7.625 3.225,-4.097 h -3.3 v 1.745 H -2.01 L -2.542,-4.097 H -5.88 v 0.037 l 4.4,11.685 z"
         style="fill:#ffffff;fill-opacity:1;fill-rule:nonzero;stroke:none"
         id="path1796"
         inkscape:connector-curvature="0" /></g><g
       id="g1798"
       transform="translate(542.76449,315.68771)"><path
         d="m 0,0 -1.859,-11.723 h 5.842 l 0.456,3.035 H 1.898 l 0.265,1.632 h 2.314 l 0.417,2.731 H 2.618 l 0.228,1.48 H 5.388 L 5.842,0 Z"
         style="fill:#ffffff;fill-opacity:1;fill-rule:nonzero;stroke:none"
         id="path1800"
         inkscape:connector-curvature="0" /></g><g
       id="g1802"
       transform="translate(-497.62031,164.70531)"><g
         id="g1804"
         clip-path="url(#clipPath1808)"><g
           id="g1810"
           transform="translate(1039.0568,150.5665)"><path
             d="m 0,0 -0.454,-2.884 c -0.38,0.265 -0.721,0.455 -1.064,0.568 -0.302,0.153 -0.644,0.19 -0.947,0.19 -0.266,0 -0.493,-0.076 -0.646,-0.19 -0.151,-0.151 -0.227,-0.34 -0.227,-0.606 0,-0.304 0.305,-0.796 0.911,-1.404 0.076,-0.075 0.113,-0.114 0.151,-0.152 0.607,-0.606 1.024,-1.138 1.214,-1.555 0.191,-0.417 0.305,-0.91 0.305,-1.48 0,-1.253 -0.38,-2.237 -1.177,-2.959 -0.759,-0.722 -1.821,-1.101 -3.187,-1.101 -0.57,0 -1.138,0.077 -1.632,0.229 -0.531,0.114 -0.948,0.303 -1.289,0.568 l 0.569,3.073 c 0.341,-0.302 0.72,-0.531 1.138,-0.682 0.417,-0.19 0.797,-0.266 1.176,-0.266 0.303,0 0.569,0.076 0.759,0.266 0.189,0.189 0.305,0.416 0.305,0.758 0,0.266 -0.078,0.531 -0.23,0.797 -0.189,0.266 -0.493,0.606 -0.947,1.024 -0.569,0.569 -0.949,1.025 -1.139,1.442 -0.227,0.417 -0.342,0.873 -0.342,1.366 0,1.139 0.381,2.011 1.062,2.694 0.722,0.644 1.708,0.986 2.923,0.986 0.492,0 0.945,-0.087 1.403,-0.19 C -0.912,0.39 -0.418,0.208 0,0"
             style="fill:#ffffff;fill-opacity:1;fill-rule:nonzero;stroke:none"
             id="path1812"
             inkscape:connector-curvature="0" /></g></g></g><g
       id="g1814"
       transform="translate(556.04349,303.96511)"><path
         d="M 0,0 H -3.034 L -4.134,6.07 -5.198,0 h -2.807 l 1.898,11.723 h 3.034 l 1.063,-6.297 1.1,6.297 h 2.769 z"
         style="fill:#ffffff;fill-opacity:1;fill-rule:nonzero;stroke:none"
         id="path1816"
         inkscape:connector-curvature="0" /></g><g
       id="g1818"
       transform="translate(562.45569,308.06261)"><path
         d="M 0,0 0.038,4.364 -1.328,0 Z M -5.881,-4.097 -1.48,7.625 H 2.427 L 3.263,-4.097 h -3.339 v 1.745 h -1.935 l -0.493,-1.745 z"
         style="fill:#ffffff;fill-opacity:1;fill-rule:nonzero;stroke:none"
         id="path1820"
         inkscape:connector-curvature="0" /></g><path
       d="m 580.47069,294.54931 h 122.772 v -24.431 h -122.772 z"
       style="fill:#e63121;fill-opacity:1;fill-rule:nonzero;stroke:none"
       id="path1822"
       inkscape:connector-curvature="0" /><g
       id="g1824"
       transform="translate(-497.62031,164.70531)"><g
         id="g1826"
         clip-path="url(#clipPath1830)"><g
           id="g1832"
           transform="translate(1110.6559,123.9902)"><path
             d="M 0,0 C 0,1.516 -1.231,2.8 -2.815,2.8 -4.341,2.8 -5.63,1.516 -5.63,0 V -0.292 L -5.924,-0.35 c -1.583,0 -2.814,-1.225 -2.814,-2.803 0,-1.516 1.231,-2.799 2.814,-2.799 H 0 Z"
             style="fill:#ffffff;fill-opacity:1;fill-rule:nonzero;stroke:none"
             id="path1834"
             inkscape:connector-curvature="0" /></g><g
           id="g1836"
           transform="translate(1110.6559,111.269)"><path
             d="m 0,0 c 0,-1.577 -1.231,-2.802 -2.815,-2.802 -1.526,0 -2.815,1.225 -2.815,2.802 v 0.292 h -0.294 c -1.583,0 -2.814,1.284 -2.814,2.799 0,1.577 1.231,2.802 2.814,2.802 H 0 Z"
             style="fill:#f8baa2;fill-opacity:1;fill-rule:nonzero;stroke:none"
             id="path1838"
             inkscape:connector-curvature="0" /></g><g
           id="g1840"
           transform="translate(1111.5355,123.9902)"><path
             d="M 0,0 C 0,1.516 1.29,2.8 2.816,2.8 4.398,2.8 5.631,1.516 5.631,0 V -0.292 L 5.984,-0.35 c 1.523,0 2.813,-1.225 2.813,-2.803 0,-1.516 -1.29,-2.799 -2.813,-2.799 H 0 Z"
             style="fill:#f8baa2;fill-opacity:1;fill-rule:nonzero;stroke:none"
             id="path1842"
             inkscape:connector-curvature="0" /></g><g
           id="g1844"
           transform="translate(1111.5355,111.269)"><path
             d="m 0,0 c 0,-1.577 1.29,-2.802 2.816,-2.802 1.582,0 2.815,1.225 2.815,2.802 v 0.292 h 0.353 c 1.523,0 2.813,1.284 2.813,2.799 0,1.577 -1.29,2.802 -2.813,2.802 H 0 Z"
             style="fill:#ffffff;fill-opacity:1;fill-rule:nonzero;stroke:none"
             id="path1846"
             inkscape:connector-curvature="0" /></g><g
           id="g1848"
           transform="translate(1136.6144,110.7572)"><path
             d="m 0,0 c -1.265,0 -2.277,0.431 -3.036,1.331 -0.76,0.935 -1.157,2.123 -1.157,3.634 0,1.223 0.18,2.41 0.504,3.597 0.326,1.152 0.725,2.123 1.304,2.915 0.505,0.754 1.156,1.331 1.844,1.69 0.692,0.402 1.55,0.576 2.349,0.576 1.302,0 2.315,-0.468 3.073,-1.331 C 5.641,11.513 6.002,10.288 6.002,8.743 6.002,7.518 5.858,6.332 5.531,5.18 5.207,4.03 4.773,3.058 4.23,2.266 3.724,1.511 3.11,0.936 2.386,0.539 1.62,0.129 0.854,0 0,0 M 0.254,9.21 C 0.037,8.599 -0.108,7.879 -0.253,7.016 -0.361,6.188 -0.434,5.397 -0.434,4.676 c 0,-0.503 0.073,-0.862 0.181,-1.078 0.145,-0.253 0.362,-0.361 0.652,-0.361 0.692,0 0.99,0.76 1.155,1.296 0.219,0.576 0.363,1.295 0.507,2.123 0.108,0.827 0.18,1.618 0.18,2.375 0,0.503 -0.072,0.862 -0.216,1.114 C 1.917,10.362 1.7,10.469 1.447,10.469 0.751,10.469 0.442,9.771 0.254,9.21"
             style="fill:#ffffff;fill-opacity:1;fill-rule:nonzero;stroke:none"
             id="path1850"
             inkscape:connector-curvature="0" /></g></g></g><g
       id="g1852"
       transform="translate(627.31539,275.71421)"><path
         d="m 0,0 2.098,13.239 h 3.76 L 4.268,3.274 h 2.71 L 6.472,0 Z"
         style="fill:#ffffff;fill-opacity:1;fill-rule:nonzero;stroke:none"
         id="path1854"
         inkscape:connector-curvature="0" /></g><g
       id="g1856"
       transform="translate(654.03559,285.60721)"><path
         d="M 0,0 H -2.206 L -3.759,-9.893 H -7.521 L -5.929,0 h -2.243 l 0.543,3.346 h 8.171 z"
         style="fill:#ffffff;fill-opacity:1;fill-rule:nonzero;stroke:none"
         id="path1858"
         inkscape:connector-curvature="0" /></g><g
       id="g1860"
       transform="translate(662.35159,288.95351)"><path
         d="m 0,0 h -6.58 l -2.097,-13.239 h 6.579 l 0.544,3.417 h -2.894 l 0.326,1.835 h 2.603 l 0.47,3.095 h -2.603 l 0.29,1.689 h 2.856 z"
         style="fill:#ffffff;fill-opacity:1;fill-rule:nonzero;stroke:none"
         id="path1862"
         inkscape:connector-curvature="0" /></g><g
       id="g1864"
       transform="translate(674.24749,280.31931)"><path
         d="M 0,0 1.554,4.929 1.482,0 Z m -5.171,-4.605 h 3.833 l 0.58,1.943 H 1.409 V -4.605 H 5.17 L 4.23,8.634 h -4.411 z"
         style="fill:#ffffff;fill-opacity:1;fill-rule:nonzero;stroke:none"
         id="path1866"
         inkscape:connector-curvature="0" /></g><g
       id="g1868"
       transform="translate(-497.62031,164.70531)"><g
         id="g1870"
         clip-path="url(#clipPath1874)"><g
           id="g1876"
           transform="translate(1167.7449,120.8306)"><path
             d="m 0,0 0.579,3.273 c -0.675,0.254 -1.371,0.396 -2.096,0.396 -1.99,0 -3.581,-0.792 -4.81,-2.375 -1.329,-1.804 -1.808,-4.059 -1.808,-6.259 0,-1.346 0.283,-2.766 1.193,-3.813 0.796,-0.864 1.954,-1.295 3.471,-1.295 0.362,0 0.724,0.036 1.013,0.072 0.29,0.036 0.578,0.107 0.831,0.215 l 0.542,3.203 c -0.18,-0.072 -0.397,-0.108 -0.578,-0.145 -0.181,-0.035 -0.361,-0.035 -0.505,-0.035 -0.65,0 -1.158,0.18 -1.483,0.611 -0.289,0.432 -0.47,1.079 -0.47,1.944 0,1.365 0.253,2.481 0.795,3.308 0.543,0.828 1.229,1.223 2.097,1.223 C -0.825,0.323 -0.339,0.226 0,0"
             style="fill:#ffffff;fill-opacity:1;fill-rule:nonzero;stroke:none"
             id="path1878"
             inkscape:connector-curvature="0" /></g><g
           id="g1880"
           transform="translate(1159.0486,145.8362)"><path
             d="m 0,0 h 0.207 c 0.586,0 1.036,0.185 1.348,0.55 0.316,0.368 0.474,0.899 0.474,1.592 0,0.396 -0.1,0.685 -0.303,0.875 C 1.526,3.208 1.215,3.301 0.793,3.301 0.766,3.301 0.726,3.297 0.668,3.291 0.606,3.285 0.559,3.282 0.519,3.282 Z"
             style="fill:#0058a2;fill-opacity:1;fill-rule:nonzero;stroke:none"
             id="path1882"
             inkscape:connector-curvature="0" /></g></g></g></g></svg>